<svg width="18" height="18" viewBox="0 0 18 18" fill="none" xmlns="http://www.w3.org/2000/svg">
<path id="Vector" d="M8.99956 16.8056H17M12.8895 2.24653C13.2434 1.89265 13.7234 1.69385 14.2238 1.69385C14.7243 1.69385 15.2043 1.89265 15.5581 2.24653C15.912 2.60041 16.1108 3.08037 16.1108 3.58083C16.1108 4.08129 15.912 4.56125 15.5581 4.91512L4.88199 15.5922C4.67051 15.8036 4.4091 15.9583 4.12195 16.042L1.56892 16.7869C1.49243 16.8092 1.41135 16.8105 1.33416 16.7908C1.25697 16.771 1.18652 16.7308 1.13018 16.6745C1.07384 16.6182 1.03368 16.5477 1.01391 16.4705C0.994131 16.3933 0.995469 16.3122 1.01778 16.2358L1.76271 13.6827C1.84647 13.3959 2.00116 13.1348 2.21251 12.9236L12.8895 2.24653Z" stroke="#556A7E" stroke-width="1.86667" stroke-linecap="round" stroke-linejoin="round"/>
</svg>
