<svg width="32" height="32" viewBox="0 0 32 32" fill="none" xmlns="http://www.w3.org/2000/svg">
<path d="M12.6667 5.33398C14.9652 5.33398 17.1696 6.24708 18.7949 7.87239C20.4202 9.49771 21.3333 11.7021 21.3333 14.0007C21.3333 16.1607 20.5467 18.134 19.24 19.6407L26.7733 27.174L25.8267 28.1207L18.2933 20.5873C16.727 21.9314 14.7307 22.6694 12.6667 22.6673C10.3681 22.6673 8.16372 21.7542 6.53841 20.1289C4.91309 18.5036 4 16.2992 4 14.0007C4 11.7021 4.91309 9.49771 6.53841 7.87239C8.16372 6.24708 10.3681 5.33398 12.6667 5.33398ZM12.6667 6.66732C10.7217 6.66732 8.85648 7.43993 7.48122 8.8152C6.10595 10.1905 5.33333 12.0557 5.33333 14.0007C5.33333 15.9456 6.10595 17.8108 7.48122 19.1861C8.85648 20.5614 10.7217 21.334 12.6667 21.334C13.6297 21.334 14.5833 21.1443 15.473 20.7758C16.3627 20.4072 17.1712 19.8671 17.8521 19.1861C18.5331 18.5051 19.0732 17.6967 19.4418 16.807C19.8103 15.9173 20 14.9637 20 14.0007C20 13.0376 19.8103 12.084 19.4418 11.1943C19.0732 10.3046 18.5331 9.49616 17.8521 8.8152C17.1712 8.13424 16.3627 7.59407 15.473 7.22553C14.5833 6.857 13.6297 6.66732 12.6667 6.66732Z" fill="#7895B2"/>
</svg>
