<svg width="24" height="24" viewBox="0 0 24 24" fill="none" xmlns="http://www.w3.org/2000/svg">
<g id="solar:calendar-linear">
<g id="Group">
<rect id="Rectangle 1052" x="2" y="3.5" width="20" height="18" rx="1" stroke="#556A7E" stroke-width="1.5"/>
<path id="Vector" d="M7 3.5V2M17 3.5V2M2.5 8.5H21.5" stroke="#556A7E" stroke-width="1.5" stroke-linecap="square"/>
<path id="Vector_2" d="M18 16.5C18 16.7652 17.8946 17.0196 17.7071 17.2071C17.5196 17.3946 17.2652 17.5 17 17.5C16.7348 17.5 16.4804 17.3946 16.2929 17.2071C16.1054 17.0196 16 16.7652 16 16.5C16 16.2348 16.1054 15.9804 16.2929 15.7929C16.4804 15.6054 16.7348 15.5 17 15.5C17.2652 15.5 17.5196 15.6054 17.7071 15.7929C17.8946 15.9804 18 16.2348 18 16.5ZM18 12.5C18 12.7652 17.8946 13.0196 17.7071 13.2071C17.5196 13.3946 17.2652 13.5 17 13.5C16.7348 13.5 16.4804 13.3946 16.2929 13.2071C16.1054 13.0196 16 12.7652 16 12.5C16 12.2348 16.1054 11.9804 16.2929 11.7929C16.4804 11.6054 16.7348 11.5 17 11.5C17.2652 11.5 17.5196 11.6054 17.7071 11.7929C17.8946 11.9804 18 12.2348 18 12.5ZM13 16.5C13 16.7652 12.8946 17.0196 12.7071 17.2071C12.5196 17.3946 12.2652 17.5 12 17.5C11.7348 17.5 11.4804 17.3946 11.2929 17.2071C11.1054 17.0196 11 16.7652 11 16.5C11 16.2348 11.1054 15.9804 11.2929 15.7929C11.4804 15.6054 11.7348 15.5 12 15.5C12.2652 15.5 12.5196 15.6054 12.7071 15.7929C12.8946 15.9804 13 16.2348 13 16.5ZM13 12.5C13 12.7652 12.8946 13.0196 12.7071 13.2071C12.5196 13.3946 12.2652 13.5 12 13.5C11.7348 13.5 11.4804 13.3946 11.2929 13.2071C11.1054 13.0196 11 12.7652 11 12.5C11 12.2348 11.1054 11.9804 11.2929 11.7929C11.4804 11.6054 11.7348 11.5 12 11.5C12.2652 11.5 12.5196 11.6054 12.7071 11.7929C12.8946 11.9804 13 12.2348 13 12.5ZM8 16.5C8 16.7652 7.89464 17.0196 7.70711 17.2071C7.51957 17.3946 7.26522 17.5 7 17.5C6.73478 17.5 6.48043 17.3946 6.29289 17.2071C6.10536 17.0196 6 16.7652 6 16.5C6 16.2348 6.10536 15.9804 6.29289 15.7929C6.48043 15.6054 6.73478 15.5 7 15.5C7.26522 15.5 7.51957 15.6054 7.70711 15.7929C7.89464 15.9804 8 16.2348 8 16.5ZM8 12.5C8 12.7652 7.89464 13.0196 7.70711 13.2071C7.51957 13.3946 7.26522 13.5 7 13.5C6.73478 13.5 6.48043 13.3946 6.29289 13.2071C6.10536 13.0196 6 12.7652 6 12.5C6 12.2348 6.10536 11.9804 6.29289 11.7929C6.48043 11.6054 6.73478 11.5 7 11.5C7.26522 11.5 7.51957 11.6054 7.70711 11.7929C7.89464 11.9804 8 12.2348 8 12.5Z" fill="#556A7E"/>
</g>
</g>
</svg>
