<svg width="24" height="24" viewBox="0 0 24 24" fill="none" xmlns="http://www.w3.org/2000/svg">
<path d="M8.25 9.75011H13.125C13.8212 9.75011 14.4889 10.0267 14.9812 10.519C15.4734 11.0112 15.75 11.6789 15.75 12.3751C15.75 13.0713 15.4734 13.739 14.9812 14.2313C14.4889 14.7235 13.8212 15.0001 13.125 15.0001H12M8.25 9.75011L10.5 7.50011M8.25 9.75011L10.5 12.0001M19.5 4.75711V21.7501L15.75 20.2501L12 21.7501L8.25 20.2501L4.5 21.7501V4.75711C4.5 3.64911 5.306 2.70011 6.407 2.57211C10.1232 2.14068 13.8768 2.14068 17.593 2.57211C18.693 2.70011 19.5 3.64911 19.5 4.75711Z" stroke="#90AEC4" stroke-width="1.5" stroke-linecap="round" stroke-linejoin="round"/>
</svg>
