<svg width="25" height="24" viewBox="0 0 25 24" fill="none" xmlns="http://www.w3.org/2000/svg">
<g clip-path="url(#clip0_1339_6432)">
<path d="M8.8501 4.5C8.25336 4.5 7.68106 4.73705 7.25911 5.15901C6.83715 5.58097 6.6001 6.15326 6.6001 6.75C6.6001 7.34674 6.83715 7.91903 7.25911 8.34099C7.68106 8.76295 8.25336 9 8.8501 9C9.44683 9 10.0191 8.76295 10.4411 8.34099C10.863 7.91903 11.1001 7.34674 11.1001 6.75C11.1001 6.15326 10.863 5.58097 10.4411 5.15901C10.0191 4.73705 9.44683 4.5 8.8501 4.5ZM5.1001 6.75C5.1001 5.75544 5.49519 4.80161 6.19845 4.09835C6.90171 3.39509 7.85554 3 8.8501 3C9.84466 3 10.7985 3.39509 11.5017 4.09835C12.205 4.80161 12.6001 5.75544 12.6001 6.75C12.6001 7.74456 12.205 8.69839 11.5017 9.40165C10.7985 10.1049 9.84466 10.5 8.8501 10.5C7.85554 10.5 6.90171 10.1049 6.19845 9.40165C5.49519 8.69839 5.1001 7.74456 5.1001 6.75ZM17.8501 6C17.4523 6 17.0707 6.15804 16.7894 6.43934C16.5081 6.72064 16.3501 7.10218 16.3501 7.5C16.3501 7.89782 16.5081 8.27936 16.7894 8.56066C17.0707 8.84196 17.4523 9 17.8501 9C18.2479 9 18.6295 8.84196 18.9108 8.56066C19.1921 8.27936 19.3501 7.89782 19.3501 7.5C19.3501 7.10218 19.1921 6.72064 18.9108 6.43934C18.6295 6.15804 18.2479 6 17.8501 6ZM14.8501 7.5C14.8501 6.70435 15.1662 5.94129 15.7288 5.37868C16.2914 4.81607 17.0544 4.5 17.8501 4.5C18.6457 4.5 19.4088 4.81607 19.9714 5.37868C20.534 5.94129 20.8501 6.70435 20.8501 7.5C20.8501 8.29565 20.534 9.05871 19.9714 9.62132C19.4088 10.1839 18.6457 10.5 17.8501 10.5C17.0544 10.5 16.2914 10.1839 15.7288 9.62132C15.1662 9.05871 14.8501 8.29565 14.8501 7.5ZM12.9421 12.0255C12.8289 12.0083 12.7146 11.9998 12.6001 12H5.1001C4.50336 12 3.93106 12.2371 3.50911 12.659C3.08715 13.081 2.8501 13.6533 2.8501 14.25V14.418C2.85038 14.4868 2.85539 14.5554 2.8651 14.6235C2.95038 15.3507 3.22103 16.0439 3.6511 16.6365C4.4731 17.769 6.0331 18.75 8.8501 18.75C9.2121 18.75 9.5536 18.7345 9.8746 18.7035C9.70079 18.2382 9.60795 17.7466 9.6001 17.25V17.2215C9.3506 17.2414 9.10039 17.2509 8.8501 17.25C6.4171 17.25 5.3521 16.4265 4.8631 15.7545C4.58817 15.3752 4.41375 14.9324 4.3561 14.4675L4.3501 14.3955V14.25C4.3501 14.0511 4.42912 13.8603 4.56977 13.7197C4.71042 13.579 4.90119 13.5 5.1001 13.5H11.2801C11.7711 12.9417 12.3293 12.4465 12.9421 12.0255ZM17.8501 12C13.7041 12 11.1001 15.477 11.1001 17.25C11.1001 19.05 13.7086 22.5 17.8501 22.5C21.9916 22.5 24.6001 19.023 24.6001 17.25C24.6001 15.45 21.9916 12 17.8501 12ZM17.8501 21C16.8555 21 15.9017 20.6049 15.1984 19.9016C14.4952 19.1984 14.1001 18.2446 14.1001 17.25C14.1001 16.2554 14.4952 15.3016 15.1984 14.5983C15.9017 13.8951 16.8555 13.5 17.8501 13.5C18.8447 13.5 19.7985 13.8951 20.5017 14.5983C21.205 15.3016 21.6001 16.2554 21.6001 17.25C21.6001 18.2446 21.205 19.1984 20.5017 19.9016C19.7985 20.6049 18.8447 21 17.8501 21ZM20.1001 17.25C20.1001 17.8467 19.863 18.419 19.4411 18.841C19.0191 19.2629 18.4468 19.5 17.8501 19.5C17.2534 19.5 16.6811 19.2629 16.2591 18.841C15.8372 18.419 15.6001 17.8467 15.6001 17.25C15.6001 16.6533 15.8372 16.081 16.2591 15.659C16.6811 15.2371 17.2534 15 17.8501 15C18.4468 15 19.0191 15.2371 19.4411 15.659C19.863 16.081 20.1001 16.6533 20.1001 17.25Z" fill="#90AEC4"/>
</g>
<defs>
<clipPath id="clip0_1339_6432">
<rect width="24" height="24" fill="white" transform="translate(0.600098)"/>
</clipPath>
</defs>
</svg>
