<svg width="25" height="24" viewBox="0 0 25 24" fill="none" xmlns="http://www.w3.org/2000/svg">
<g id="iconoir:shop">
<g id="Group">
<path id="Vector" d="M3.3999 10V19C3.3999 19.5304 3.61062 20.0391 3.98569 20.4142C4.36076 20.7893 4.86947 21 5.3999 21H19.3999C19.9303 21 20.439 20.7893 20.8141 20.4142C21.1892 20.0391 21.3999 19.5304 21.3999 19V10" stroke="#90AEC4" stroke-width="1.5"/>
<path id="Vector_2" d="M15.2329 21V15C15.2329 14.4696 15.0222 13.9609 14.6471 13.5858C14.2721 13.2107 13.7633 13 13.2329 13H11.2329C10.7025 13 10.1938 13.2107 9.8187 13.5858C9.44362 13.9609 9.23291 14.4696 9.23291 15V21" stroke="#90AEC4" stroke-width="1.5" stroke-miterlimit="16"/>
<path id="Vector_3" d="M22.2179 9.364L20.5239 3.435C20.488 3.30965 20.4123 3.19939 20.3082 3.1209C20.2041 3.04241 20.0773 2.99997 19.9469 3H15.8999L16.3749 8.704C16.3822 8.79568 16.4113 8.88429 16.4596 8.96254C16.508 9.04078 16.5742 9.10641 16.6529 9.154C17.0429 9.387 17.8049 9.817 18.3999 10C19.4159 10.313 20.8999 10.2 21.7459 10.096C21.8281 10.0854 21.9071 10.0569 21.9772 10.0126C22.0473 9.96835 22.1069 9.90929 22.1519 9.8396C22.1968 9.7699 22.226 9.69123 22.2374 9.60909C22.2488 9.52695 22.2422 9.44331 22.2179 9.364Z" stroke="#90AEC4" stroke-width="1.5"/>
<path id="Vector_4" d="M14.3998 10C14.9678 9.825 15.6878 9.426 16.0898 9.188C16.1834 9.13205 16.2593 9.05087 16.3088 8.95377C16.3583 8.85667 16.3795 8.74757 16.3698 8.639L15.8998 3H8.89984L8.42984 8.639C8.42002 8.74774 8.44108 8.85704 8.49062 8.95433C8.54015 9.05163 8.61614 9.13297 8.70984 9.189C9.11184 9.426 9.83184 9.825 10.3998 10C11.8928 10.46 12.9068 10.46 14.3998 10Z" stroke="#90AEC4" stroke-width="1.5"/>
<path id="Vector_5" d="M4.27595 3.435L2.58195 9.365C2.55804 9.44418 2.55165 9.52762 2.56322 9.60951C2.57479 9.69141 2.60405 9.76981 2.64896 9.83927C2.69387 9.90873 2.75335 9.96758 2.82329 10.0117C2.89323 10.0559 2.97194 10.0843 3.05395 10.095C3.89895 10.2 5.38395 10.312 6.39995 10C6.99495 9.817 7.75796 9.387 8.14696 9.155C8.22578 9.10731 8.29211 9.04153 8.34046 8.9631C8.3888 8.88467 8.41777 8.79585 8.42495 8.704L8.89995 3H4.85295C4.72258 2.99997 4.59573 3.04241 4.49163 3.1209C4.38752 3.19939 4.31181 3.30965 4.27595 3.435Z" stroke="#90AEC4" stroke-width="1.5"/>
</g>
</g>
</svg>
