<svg width="25" height="24" viewBox="0 0 25 24" fill="none" xmlns="http://www.w3.org/2000/svg">
<g id="weui:shop-outlined">
<path id="Vector" fill-rule="evenodd" clip-rule="evenodd" d="M8.2002 7V6C8.2002 4.93913 8.62162 3.92172 9.37177 3.17157C10.1219 2.42143 11.1393 2 12.2002 2C13.2611 2 14.2785 2.42143 15.0286 3.17157C15.7788 3.92172 16.2002 4.93913 16.2002 6V7H19.2002C19.7522 7 20.2002 7.449 20.2002 8.007V20.008C20.2002 21.108 19.3052 22 18.2062 22H6.1942C5.6657 22 5.15882 21.7902 4.78493 21.4167C4.41104 21.0432 4.20073 20.5365 4.2002 20.008V8.008C4.2002 7.45 4.6452 7 5.2002 7H8.2002ZM9.4002 7H15.0002V6C15.0002 5.25739 14.7052 4.5452 14.1801 4.0201C13.655 3.495 12.9428 3.2 12.2002 3.2C11.4576 3.2 10.7454 3.495 10.2203 4.0201C9.69519 4.5452 9.4002 5.25739 9.4002 6V7ZM8.2002 8.2H5.4002V20.008C5.4002 20.444 5.7562 20.8 6.1942 20.8H18.2062C18.4164 20.8 18.6181 20.7166 18.7669 20.5681C18.9158 20.4197 18.9997 20.2182 19.0002 20.008V8.2H16.2002V11H15.0002V8.2H9.4002V11H8.2002V8.2Z" fill="#90AEC4"/>
</g>
</svg>
