<svg width="16" height="16" viewBox="0 0 16 16" fill="none" xmlns="http://www.w3.org/2000/svg">
<path d="M14.666 7.99903C14.666 8.87455 14.4936 9.7415 14.1585 10.5504C13.8235 11.3593 13.3324 12.0942 12.7133 12.7133C12.0942 13.3324 11.3593 13.8235 10.5504 14.1585C9.7415 14.4936 8.87455 14.666 7.99903 14.666C7.12351 14.666 6.25656 14.4936 5.44768 14.1585C4.6388 13.8235 3.90384 13.3324 3.28475 12.7133C2.66566 12.0942 2.17457 11.3593 1.83953 10.5504C1.50448 9.7415 1.33203 8.87455 1.33203 7.99903C1.33203 6.23083 2.03445 4.53506 3.28475 3.28475C4.53506 2.03445 6.23083 1.33203 7.99903 1.33203C9.76723 1.33203 11.463 2.03445 12.7133 3.28475C13.9636 4.53506 14.666 6.23083 14.666 7.99903Z" stroke="#2A333C" stroke-width="1.5"/>
<path d="M10.6654 7.9987C10.6654 8.87403 10.5961 9.74136 10.4621 10.55C10.3287 11.3587 10.1321 12.0934 9.88407 12.7127C9.63673 13.332 9.34273 13.8227 9.0194 14.158C8.6954 14.4927 8.34873 14.6654 7.99873 14.6654C7.64873 14.6654 7.30207 14.4927 6.97873 14.158C6.65473 13.8227 6.36073 13.3314 6.1134 12.7127C5.8654 12.0934 5.66873 11.3594 5.53473 10.55C5.398 9.7065 5.33022 8.85323 5.33207 7.9987C5.33207 7.12336 5.40073 6.25603 5.53473 5.44736C5.66873 4.6387 5.8654 3.90403 6.1134 3.2847C6.36073 2.66536 6.65473 2.1747 6.97807 1.83936C7.30207 1.50536 7.64873 1.33203 7.99873 1.33203C8.34873 1.33203 8.6954 1.5047 9.01873 1.83936C9.34273 2.1747 9.63673 2.66603 9.88407 3.2847C10.1321 3.90403 10.3287 4.63803 10.4621 5.44736C10.5967 6.25603 10.6654 7.12336 10.6654 7.9987Z" stroke="#2A333C" stroke-width="1.5"/>
<path d="M1.3335 8H14.6668" stroke="#2A333C" stroke-width="1.5" stroke-linecap="round"/>
</svg>
