<svg width="20" height="20" viewBox="0 0 20 20" fill="none" xmlns="http://www.w3.org/2000/svg">
<path id="Vector" d="M8.10526 3.85531V4.09216H11.8947V3.85531C11.8947 3.3528 11.6951 2.87087 11.3398 2.51553C10.9844 2.1602 10.5025 1.96058 10 1.96058C9.49749 1.96058 9.01555 2.1602 8.66022 2.51553C8.30489 2.87087 8.10526 3.3528 8.10526 3.85531ZM6.92105 4.09216V3.85531C6.92105 3.03873 7.24544 2.25558 7.82286 1.67817C8.40027 1.10076 9.18341 0.776367 10 0.776367C10.8166 0.776367 11.5997 1.10076 12.1771 1.67817C12.7546 2.25558 13.0789 3.03873 13.0789 3.85531V4.09216H18.4079C18.5649 4.09216 18.7155 4.15454 18.8266 4.26558C18.9376 4.37662 19 4.52723 19 4.68426C19 4.8413 18.9376 4.9919 18.8266 5.10294C18.7155 5.21398 18.5649 5.27637 18.4079 5.27637H17.0262L16.0788 16.5766C16.0068 17.4347 15.6151 18.2345 14.9812 18.8174C14.3473 19.4003 13.5176 19.7238 12.6564 19.7237H7.34358C6.48251 19.7237 5.65289 19.4001 5.01912 18.8172C4.38534 18.2343 3.99366 17.4346 3.92168 16.5766L2.97432 5.27637H1.59211C1.43507 5.27637 1.28446 5.21398 1.17342 5.10294C1.06238 4.9919 1 4.8413 1 4.68426C1 4.52723 1.06238 4.37662 1.17342 4.26558C1.28446 4.15454 1.43507 4.09216 1.59211 4.09216H6.92105ZM5.10163 16.4776C5.14878 17.0398 5.4054 17.5637 5.82064 17.9456C6.23588 18.3275 6.77943 18.5395 7.34358 18.5395H12.6564C13.2207 18.5396 13.7643 18.3277 14.1797 17.9458C14.595 17.5639 14.8517 17.0398 14.8988 16.4776L15.8377 5.27637H4.16232L5.10163 16.4776ZM8.81579 8.47374C8.81579 8.39598 8.80047 8.31898 8.77072 8.24715C8.74096 8.17531 8.69735 8.11004 8.64237 8.05505C8.58738 8.00007 8.52211 7.95646 8.45027 7.9267C8.37844 7.89695 8.30144 7.88163 8.22368 7.88163C8.14593 7.88163 8.06893 7.89695 7.9971 7.9267C7.92526 7.95646 7.85998 8.00007 7.805 8.05505C7.75002 8.11004 7.70641 8.17531 7.67665 8.24715C7.64689 8.31898 7.63158 8.39598 7.63158 8.47374V15.3422C7.63158 15.4199 7.64689 15.4969 7.67665 15.5687C7.70641 15.6406 7.75002 15.7059 7.805 15.7608C7.85998 15.8158 7.92526 15.8594 7.9971 15.8892C8.06893 15.9189 8.14593 15.9343 8.22368 15.9343C8.30144 15.9343 8.37844 15.9189 8.45027 15.8892C8.52211 15.8594 8.58738 15.8158 8.64237 15.7608C8.69735 15.7059 8.74096 15.6406 8.77072 15.5687C8.80047 15.4969 8.81579 15.4199 8.81579 15.3422V8.47374ZM11.7763 7.88163C12.1032 7.88163 12.3684 8.14689 12.3684 8.47374V15.3422C12.3684 15.4992 12.306 15.6498 12.195 15.7608C12.084 15.8719 11.9334 15.9343 11.7763 15.9343C11.6193 15.9343 11.4687 15.8719 11.3576 15.7608C11.2466 15.6498 11.1842 15.4992 11.1842 15.3422V8.47374C11.1842 8.14689 11.4495 7.88163 11.7763 7.88163Z" fill="#556A7E" stroke="#556A7E" stroke-width="0.514171"/>
</svg>
