<svg width="54" height="54" viewBox="0 0 54 54" fill="none" xmlns="http://www.w3.org/2000/svg">
<path d="M26.2651 16.2494C24.2941 16.2494 21.2431 14.0084 18.0301 14.0894C13.7911 14.1434 9.9031 16.5463 7.7161 20.3533C3.3151 27.9944 6.5821 39.2804 10.8751 45.4904C12.9811 48.5144 15.4651 51.9164 18.7591 51.8084C21.9181 51.6734 23.1061 49.7564 26.9401 49.7564C30.7471 49.7564 31.8271 51.8084 35.1751 51.7274C38.5771 51.6734 40.7371 48.6494 42.8161 45.5984C45.2191 42.0884 46.2181 38.6864 46.2721 38.4974C46.1911 38.4704 39.6571 35.9594 39.5761 28.3994C39.5221 22.0813 44.7331 19.0574 44.9761 18.9224C42.0061 14.5754 37.4431 14.0894 35.8501 13.9814C31.6921 13.6574 28.2091 16.2494 26.2651 16.2494ZM33.2851 9.87736C35.0401 7.77136 36.2011 4.82836 35.8771 1.91235C33.3661 2.02035 30.3421 3.58636 28.5331 5.69236C26.9131 7.55536 25.5091 10.5524 25.8871 13.4144C28.6681 13.6304 31.5301 11.9834 33.2851 9.87736Z" fill="white"/>
</svg>
