<svg width="53" height="53" viewBox="0 0 53 53" fill="none" xmlns="http://www.w3.org/2000/svg">
<path d="M41.6667 7H11.3333C8.9401 7 7 8.9401 7 11.3333V41.6667C7 44.0599 8.9401 46 11.3333 46H41.6667C44.0599 46 46 44.0599 46 41.6667V11.3333C46 8.9401 44.0599 7 41.6667 7Z" stroke="#E8DFCA" stroke-width="4.33333" stroke-linecap="round" stroke-linejoin="round"/>
<path d="M20.0001 24.3327C22.3933 24.3327 24.3334 22.3926 24.3334 19.9993C24.3334 17.6061 22.3933 15.666 20.0001 15.666C17.6068 15.666 15.6667 17.6061 15.6667 19.9993C15.6667 22.3926 17.6068 24.3327 20.0001 24.3327Z" stroke="#E8DFCA" stroke-width="4.33333" stroke-linecap="round" stroke-linejoin="round"/>
<path d="M46 33L39.3137 26.3137C38.501 25.5013 37.399 25.0449 36.25 25.0449C35.101 25.0449 33.999 25.5013 33.1863 26.3137L13.5 46" stroke="#E8DFCA" stroke-width="4.33333" stroke-linecap="round" stroke-linejoin="round"/>
</svg>
