<svg width="37" height="39" viewBox="0 0 37 39" fill="none" xmlns="http://www.w3.org/2000/svg">
<path d="M36.0223 15.623C36.0223 15.623 36.2667 18.2958 36.2667 19.1807C36.2667 20.1153 36.0223 22.9 36.0223 22.9C36.0218 22.9038 36.0214 22.9081 36.0204 22.9124C35.4485 27.0875 33.8513 30.8475 30.9355 33.5504L24.9437 28.9056C25.399 28.5961 25.8315 28.2541 26.2376 27.8815C27.6834 26.5566 28.3835 24.8472 28.7069 22.9124H18.5937V15.623H36.0223Z" fill="#2683FB"/>
<path d="M31.0193 4.99924L25.6886 10.4007C23.7657 8.75059 21.4167 7.54047 18.7272 7.54047C13.7858 7.54047 9.58547 10.8073 8.05001 15.3588L1.96529 10.6428C5.02971 4.35688 11.3514 0 18.5934 0C23.3322 0 27.7356 1.96918 31.0077 4.98872C31.0114 4.99255 31.0156 4.99589 31.0193 4.99972V4.99924Z" fill="#EA4335"/>
<path d="M30.9354 33.55C30.9159 33.5682 30.8959 33.5864 30.8764 33.6046C27.6099 36.5983 23.2065 38.2259 18.4905 38.2259C11.2447 38.2259 4.97231 33.9327 1.93994 27.6807L8.03488 22.9561C9.55734 27.531 13.7693 30.8203 18.7274 30.8203C21.0234 30.8203 23.1605 30.1163 24.9441 28.9052L30.9359 33.55H30.9354Z" fill="#34A853"/>
<path d="M8.03413 22.957L1.93919 27.6817C0.698277 25.1228 0 22.2357 0 19.1808C0 16.1259 0.708963 13.2202 1.96521 10.6426L8.04947 15.3591C7.64527 16.5563 7.42599 17.842 7.42599 19.1808C7.42599 20.5196 7.6397 21.7727 8.03367 22.9565L8.03413 22.957Z" fill="#FFBC00"/>
</svg>
