<svg width="100" height="28" viewBox="0 0 100 28" fill="none" xmlns="http://www.w3.org/2000/svg">
<g id="Clip path group">
<mask id="mask0_3361_15828" style="mask-type:luminance" maskUnits="userSpaceOnUse" x="0" y="0" width="100" height="28">
<g id="a">
<path id="Vector" d="M0 0.744141H100V27.2562H0V0.744141Z" fill="white"/>
</g>
</mask>
<g mask="url(#mask0_3361_15828)">
<g id="Group">
<path id="Vector_2" d="M36.4826 16.8117C37.9352 16.8105 39.3396 16.2901 40.4423 15.3446C41.5451 14.399 42.2736 13.0905 42.4964 11.655C42.9663 8.66286 40.6284 6.05082 37.3157 6.05082H31.9766C31.8764 6.04952 31.7792 6.08449 31.7028 6.14925C31.6264 6.21402 31.576 6.30422 31.5609 6.40323L29.1814 21.5068C29.1728 21.562 29.1762 21.6184 29.1914 21.6721C29.2067 21.7259 29.2333 21.7757 29.2696 21.8181C29.3059 21.8606 29.3509 21.8947 29.4016 21.9181C29.4523 21.9415 29.5075 21.9537 29.5633 21.9538H32.3886C32.4885 21.9548 32.5855 21.9197 32.6616 21.855C32.7378 21.7903 32.788 21.7002 32.8031 21.6014L33.5031 17.1647C33.518 17.0657 33.5683 16.9754 33.6446 16.9105C33.7208 16.8456 33.818 16.8105 33.9181 16.8117H36.4826ZM38.847 11.5189C38.6723 12.6249 37.8175 13.44 36.1814 13.44H34.0886L34.7229 9.41588H36.7778C38.4705 9.41949 39.0205 10.4177 38.847 11.5219V11.5189ZM54.7374 10.808H52.0549C51.9548 10.8069 51.8576 10.8419 51.7812 10.9066C51.7049 10.9714 51.6544 11.0615 51.6392 11.1605L51.5525 11.7171C51.5525 11.7171 49.4699 9.44298 45.7844 10.9791C43.6699 11.8592 42.6555 13.6779 42.2242 15.0092C42.2242 15.0092 40.8525 19.0562 43.9531 21.2846C43.9531 21.2846 46.8272 23.4267 50.0645 21.152L50.0085 21.5068C49.9998 21.562 50.0031 21.6185 50.0183 21.6722C50.0335 21.726 50.0602 21.7758 50.0965 21.8183C50.1328 21.8608 50.1778 21.8949 50.2286 21.9183C50.2793 21.9417 50.3345 21.9538 50.3904 21.9538H53.0717C53.1719 21.9551 53.2691 21.9202 53.3455 21.8554C53.4219 21.7906 53.4723 21.7004 53.4874 21.6014L55.1187 11.255C55.1273 11.1999 55.1239 11.1435 55.1087 11.0897C55.0934 11.036 55.0668 10.9862 55.0305 10.9438C54.9942 10.9013 54.9492 10.8672 54.8985 10.8438C54.8478 10.8203 54.7932 10.8082 54.7374 10.808ZM50.7934 16.5261C50.6885 17.247 50.3256 17.9054 49.7722 18.3791C49.2187 18.8527 48.5122 19.1096 47.7838 19.102C47.4985 19.1053 47.2145 19.0636 46.9422 18.9785C45.7856 18.6074 45.126 17.4954 45.3157 16.2906C45.4208 15.5677 45.7851 14.9077 46.3409 14.4337C46.8966 13.9596 47.6058 13.7038 48.3362 13.7141C48.6217 13.7111 48.9061 13.7532 49.1784 13.8382C50.3308 14.208 50.9862 15.3201 50.7964 16.5261H50.7934Z" fill="#003087"/>
<path id="Vector_3" d="M75.1037 16.8116C76.5572 16.8113 77.9626 16.2913 79.0664 15.3458C80.1702 14.4002 80.8996 13.0912 81.123 11.655C81.5923 8.66285 79.2549 6.0508 75.9411 6.0508H70.6037C70.5037 6.04978 70.4067 6.08486 70.3305 6.14959C70.2542 6.21432 70.2039 6.30437 70.1887 6.40321L67.8019 21.511C67.7883 21.5943 67.8024 21.6796 67.8422 21.754C67.8819 21.8284 67.945 21.8876 68.0218 21.9225C68.0726 21.9462 68.1279 21.9585 68.1839 21.9586H71.0098C71.1099 21.9596 71.207 21.9245 71.2832 21.8596C71.3595 21.7948 71.4097 21.7046 71.4248 21.6056L72.1254 17.1689C72.1403 17.0698 72.1905 16.9795 72.2668 16.9146C72.3431 16.8497 72.4403 16.8146 72.5405 16.8159L75.1037 16.8116ZM77.4682 11.5189C77.2935 12.6249 76.4387 13.44 74.8019 13.44H72.7098L73.3447 9.41586H75.3995C77.0911 9.41948 77.6423 10.4177 77.4682 11.5219V11.5189ZM93.358 10.808H90.6784C90.5784 10.807 90.4814 10.8421 90.4052 10.9068C90.3289 10.9715 90.2786 11.0616 90.2634 11.1604L90.1754 11.7171C90.1754 11.7171 88.0935 9.44297 84.408 10.9791C82.2941 11.8592 81.279 13.6779 80.8471 15.0092C80.8471 15.0092 79.476 19.0562 82.576 21.2845C82.576 21.2845 85.4507 23.4267 88.6881 21.152L88.6321 21.5068C88.6184 21.59 88.6325 21.6754 88.6723 21.7498C88.712 21.8242 88.7752 21.8834 88.8519 21.9183C88.9025 21.9424 88.958 21.9544 89.014 21.9544H91.6953C91.7955 21.9559 91.8929 21.9209 91.9693 21.856C92.0456 21.7911 92.0958 21.7006 92.1104 21.6014L93.7423 11.255C93.7503 11.1997 93.7465 11.1432 93.7312 11.0894C93.7158 11.0356 93.6892 10.9857 93.6531 10.943C93.6169 10.9001 93.5717 10.8658 93.5206 10.8425C93.4696 10.8191 93.4141 10.8074 93.358 10.808ZM89.4146 16.5261C89.3108 17.2475 88.9483 17.9066 88.3946 18.3805C87.8409 18.8545 87.1337 19.1109 86.405 19.102C86.1193 19.1054 85.8349 19.0637 85.5622 18.9785C84.4049 18.6074 83.7447 17.4954 83.9345 16.2906C84.0393 15.5696 84.4021 14.9111 84.9555 14.4373C85.509 13.9634 86.2156 13.7065 86.9441 13.7141C87.2302 13.711 87.5146 13.7526 87.7869 13.8382C88.9513 14.208 89.6086 15.3201 89.4176 16.5261H89.4146Z" fill="#0070E0"/>
<path id="Vector_4" d="M64.5814 11.0647L61.3483 16.5219L59.7079 11.105C59.6821 11.0191 59.6293 10.9438 59.5572 10.8903C59.4851 10.8369 59.3976 10.8083 59.3079 10.8087H56.391C56.3407 10.8077 56.291 10.8189 56.246 10.8414C56.201 10.8639 56.1622 10.897 56.1328 10.9378C56.1034 10.9786 56.0844 11.026 56.0773 11.0758C56.0702 11.1256 56.0754 11.1763 56.0922 11.2237L59.032 20.3478L56.3736 24.6478C56.3435 24.6951 56.3268 24.7497 56.3252 24.8057C56.3236 24.8618 56.3371 24.9172 56.3644 24.9662C56.3917 25.0152 56.4316 25.0559 56.4801 25.084C56.5286 25.1122 56.5838 25.1267 56.6398 25.1261H59.7826C59.8725 25.1266 59.9609 25.1036 60.0392 25.0594C60.1175 25.0153 60.1829 24.9515 60.229 24.8743L68.441 11.2888C68.4706 11.2414 68.4868 11.1868 68.488 11.131C68.4893 11.0751 68.4754 11.02 68.4479 10.9713C68.4204 10.9227 68.3803 10.8823 68.3318 10.8546C68.2833 10.8268 68.2282 10.8126 68.1723 10.8135H65.0308C64.9405 10.8124 64.8514 10.8351 64.7726 10.8791C64.6937 10.9232 64.6278 10.9872 64.5814 11.0647Z" fill="#003087"/>
<path id="Vector_5" d="M96.3742 6.39833L93.9875 21.5062C93.9738 21.5894 93.988 21.6748 94.0277 21.7491C94.0675 21.8235 94.1306 21.8827 94.2074 21.9176C94.258 21.9417 94.3134 21.9538 94.3694 21.9538H97.1941C97.2943 21.955 97.3915 21.9199 97.4678 21.855C97.5441 21.7901 97.5943 21.6998 97.6092 21.6007L99.9965 6.49291C100.005 6.43772 100.002 6.38126 99.987 6.32746C99.9718 6.27366 99.945 6.22384 99.9086 6.18146C99.8722 6.13906 99.8271 6.10501 99.7764 6.08162C99.7256 6.05823 99.6704 6.04605 99.6146 6.04592H96.7893C96.6893 6.0449 96.5923 6.07997 96.516 6.1447C96.4398 6.20943 96.3894 6.29948 96.3742 6.39833Z" fill="#0070E0"/>
<path id="Vector_6" d="M21.1726 12.9498C20.5666 16.4046 17.7479 19.0161 14.0491 19.0161H11.7009C11.222 19.0161 10.7395 19.4594 10.663 19.9498L9.63466 26.4769C9.57502 26.8486 9.40093 26.9721 9.02442 26.9721H5.24731C4.86538 26.9721 4.77502 26.8444 4.83225 26.4679L5.26599 21.954L0.732252 21.7197C0.350927 21.7197 0.212975 21.5119 0.267192 21.1311L3.36057 1.51668C3.4202 1.14499 3.65153 0.985352 4.02683 0.985352H11.872C15.6485 0.985352 18.0377 3.52752 18.3298 6.82391C20.5768 8.34198 21.6274 10.3619 21.1732 12.9492L21.1726 12.9498Z" fill="#001C64"/>
<path id="Vector_7" d="M6.41564 14.6445L5.26684 21.9535L4.54033 26.539C4.52684 26.6275 4.53254 26.7177 4.55705 26.8037C4.58156 26.8898 4.6243 26.9695 4.68237 27.0375C4.74044 27.1055 4.81248 27.1602 4.89358 27.1979C4.97468 27.2356 5.06295 27.2554 5.15238 27.2559H9.14154C9.32362 27.2557 9.49966 27.1906 9.63801 27.0722C9.77637 26.9538 9.86797 26.79 9.89636 26.6101L10.9464 19.9475C10.9749 19.7677 11.0665 19.604 11.2049 19.4858C11.3432 19.3675 11.5192 19.3025 11.7012 19.3023H14.0494C15.8387 19.3 17.5683 18.6585 18.9264 17.4935C20.2846 16.3286 21.1819 14.7168 21.4566 12.9487C21.8632 10.3541 20.5578 7.99206 18.3235 6.8252C18.3184 7.10163 18.2943 7.37739 18.2512 7.6505C17.9755 9.41767 17.0778 11.0283 15.7199 12.1924C14.362 13.3565 12.6331 13.9974 10.8446 13.9999H7.16985C6.98798 14 6.81211 14.0649 6.67385 14.1831C6.5356 14.3012 6.44403 14.4648 6.41564 14.6445Z" fill="#0070E0"/>
<path id="Vector_8" d="M5.26565 21.9538H0.620469C0.53085 21.9533 0.442377 21.9336 0.361081 21.8959C0.279784 21.8582 0.207575 21.8034 0.149373 21.7352C0.0911711 21.6671 0.048345 21.5872 0.0238132 21.501C-0.000718564 21.4148 -0.00637941 21.3243 0.00721627 21.2357L3.13734 1.38992C3.16548 1.21007 3.25693 1.04617 3.39521 0.927772C3.53349 0.809372 3.70951 0.74425 3.89155 0.744141H11.8675C15.644 0.744141 18.3897 3.49233 18.3253 6.82185C17.3201 6.30329 16.2039 6.0372 15.0729 6.04655H8.42348C8.24139 6.0466 8.06528 6.11159 7.92681 6.22985C7.78834 6.34811 7.69659 6.51188 7.66806 6.69173L6.41505 14.6447L5.26565 21.9538Z" fill="#003087"/>
</g>
</g>
</g>
</svg>
