<svg width="72" height="20" viewBox="0 0 72 20" fill="none" xmlns="http://www.w3.org/2000/svg">
<path d="M8.64 0.467773H3.03978C2.65655 0.467773 2.33064 0.746188 2.27086 1.1245L0.00587916 15.485C-0.0391585 15.7683 0.180297 16.0238 0.467719 16.0238H3.14132C3.52455 16.0238 3.85046 15.7454 3.91024 15.3662L4.52111 11.493C4.58007 11.1139 4.90679 10.8354 5.2892 10.8354H7.06205C10.751 10.8354 12.8801 9.05031 13.4361 5.51281C13.6867 3.96515 13.4467 2.74913 12.7221 1.89751C11.9261 0.962369 10.5144 0.467773 8.64 0.467773ZM9.28609 5.71261C8.97983 7.72211 7.44446 7.72211 5.95986 7.72211H5.11478L5.70765 3.96925C5.74286 3.74242 5.93939 3.57537 6.16867 3.57537H6.55599C7.56729 3.57537 8.52127 3.57537 9.01423 4.15185C9.3082 4.49578 9.39828 5.00675 9.28609 5.71261Z" fill="white"/>
<path d="M25.3805 5.64772H22.6987C22.4703 5.64772 22.2729 5.81477 22.2377 6.04159L22.119 6.79167L21.9314 6.51981C21.3509 5.6772 20.0562 5.39551 18.7641 5.39551C15.8006 5.39551 13.2695 7.64002 12.7765 10.7886C12.5202 12.3591 12.8846 13.8609 13.7755 14.9083C14.5928 15.8713 15.7621 16.2725 17.1534 16.2725C19.5412 16.2725 20.8653 14.7371 20.8653 14.7371L20.7457 15.4823C20.7007 15.7673 20.9201 16.0228 21.2059 16.0228H23.6216C24.0056 16.0228 24.3299 15.7443 24.3905 15.3652L25.8399 6.18653C25.8857 5.90402 25.6671 5.64772 25.3805 5.64772ZM21.6424 10.8672C21.3836 12.3993 20.1676 13.4278 18.6167 13.4278C17.8379 13.4278 17.2156 13.178 16.816 12.7047C16.4196 12.2347 16.269 11.5657 16.3951 10.8205C16.6366 9.3015 17.8731 8.23943 19.4003 8.23943C20.1619 8.23943 20.7809 8.49246 21.1887 8.96986C21.5973 9.45217 21.7595 10.1253 21.6424 10.8672Z" fill="white"/>
<path d="M39.6627 5.64746H36.9679C36.7107 5.64746 36.4692 5.7752 36.3234 5.98893L32.6066 11.4639L31.0311 6.20265C30.932 5.87347 30.6282 5.64746 30.2843 5.64746H27.636C27.3142 5.64746 27.0907 5.96191 27.193 6.26489L30.1614 14.976L27.3707 18.9156C27.1513 19.2259 27.3724 19.6525 27.7515 19.6525H30.4431C30.6986 19.6525 30.9377 19.5281 31.0827 19.3184L40.046 6.38035C40.2605 6.07082 40.0402 5.64746 39.6627 5.64746Z" fill="white"/>
<path d="M48.5853 0.467773H42.9843C42.6019 0.467773 42.276 0.746188 42.2162 1.1245L39.9512 15.485C39.9062 15.7683 40.1256 16.0238 40.4114 16.0238H43.2856C43.5526 16.0238 43.781 15.8289 43.8228 15.5636L44.4656 11.493C44.5246 11.1139 44.8513 10.8354 45.2337 10.8354H47.0057C50.6955 10.8354 52.8238 9.05031 53.3806 5.51281C53.632 3.96515 53.3904 2.74913 52.6657 1.89751C51.8706 0.962369 50.4597 0.467773 48.5853 0.467773ZM49.2314 5.71261C48.926 7.72211 47.3906 7.72211 45.9052 7.72211H45.0609L45.6546 3.96925C45.6898 3.74242 45.8847 3.57537 46.1148 3.57537H46.5021C47.5126 3.57537 48.4674 3.57537 48.9604 4.15185C49.2543 4.49578 49.3436 5.00675 49.2314 5.71261Z" fill="white"/>
<path d="M65.3243 5.64772H62.6441C62.414 5.64772 62.2183 5.81477 62.1839 6.04159L62.0652 6.79167L61.8768 6.51981C61.2963 5.6772 60.0025 5.39551 58.7103 5.39551C55.7468 5.39551 53.2165 7.64002 52.7236 10.7886C52.4681 12.3591 52.8308 13.8609 53.7218 14.9083C54.5406 15.8713 55.7083 16.2725 57.0996 16.2725C59.4874 16.2725 60.8115 14.7371 60.8115 14.7371L60.6919 15.4823C60.6469 15.7673 60.8664 16.0228 61.1538 16.0228H63.5686C63.951 16.0228 64.2769 15.7443 64.3367 15.3652L65.7869 6.18653C65.8311 5.90402 65.6117 5.64772 65.3243 5.64772ZM61.5861 10.8672C61.329 12.3993 60.1114 13.4278 58.5604 13.4278C57.7833 13.4278 57.1594 13.178 56.7597 12.7047C56.3634 12.2347 56.2144 11.5657 56.3388 10.8205C56.5821 9.3015 57.8169 8.23943 59.3441 8.23943C60.1056 8.23943 60.7247 8.49246 61.1325 8.96986C61.5427 9.45217 61.7049 10.1253 61.5861 10.8672Z" fill="white"/>
<path d="M68.4861 0.862467L66.1875 15.4858C66.1425 15.7691 66.3619 16.0246 66.6477 16.0246H68.9586C69.3426 16.0246 69.6685 15.7462 69.7275 15.367L71.9941 1.00741C72.0391 0.724079 71.8197 0.467773 71.5339 0.467773H68.9463C68.7178 0.468592 68.5213 0.635641 68.4861 0.862467Z" fill="white"/>
</svg>
