<svg width="178" height="46" viewBox="0 0 178 46" fill="none" xmlns="http://www.w3.org/2000/svg">
<path d="M21.891 12.528C21.891 14.0827 21.5244 15.5493 20.791 16.928C20.0577 18.3067 18.8844 19.436 17.271 20.316C15.6577 21.1667 13.5897 21.592 11.067 21.592H5.52303V34H0.507031V3.42H11.067C13.4137 3.42 15.3937 3.83066 17.007 4.652C18.6497 5.444 19.867 6.52933 20.659 7.908C21.4804 9.28667 21.891 10.8267 21.891 12.528ZM11.067 17.5C12.9737 17.5 14.3964 17.0747 15.335 16.224C16.2737 15.344 16.743 14.112 16.743 12.528C16.743 9.184 14.851 7.512 11.067 7.512H5.52303V17.5H11.067ZM29.227 6.544C28.3177 6.544 27.555 6.236 26.939 5.62C26.323 5.004 26.015 4.24133 26.015 3.332C26.015 2.42266 26.323 1.66 26.939 1.044C27.555 0.427999 28.3177 0.119998 29.227 0.119998C30.107 0.119998 30.855 0.427999 31.471 1.044C32.087 1.66 32.395 2.42266 32.395 3.332C32.395 4.24133 32.087 5.004 31.471 5.62C30.855 6.236 30.107 6.544 29.227 6.544ZM31.691 9.756V34H26.675V9.756H31.691ZM43.2926 13.364C44.1432 12.1907 45.3019 11.2373 46.7686 10.504C48.2646 9.74133 49.9219 9.36 51.7406 9.36C53.8819 9.36 55.8179 9.87333 57.5486 10.9C59.2792 11.9267 60.6432 13.3933 61.6406 15.3C62.6379 17.1773 63.1366 19.3333 63.1366 21.768C63.1366 24.2027 62.6379 26.388 61.6406 28.324C60.6432 30.2307 59.2646 31.7267 57.5046 32.812C55.7739 33.868 53.8526 34.396 51.7406 34.396C49.8632 34.396 48.1912 34.0293 46.7246 33.296C45.2872 32.5627 44.1432 31.624 43.2926 30.48V34H38.2766V1.44H43.2926V13.364ZM58.0326 21.768C58.0326 20.096 57.6806 18.6587 56.9766 17.456C56.3019 16.224 55.3926 15.3 54.2486 14.684C53.1339 14.0387 51.9312 13.716 50.6406 13.716C49.3792 13.716 48.1766 14.0387 47.0326 14.684C45.9179 15.3293 45.0086 16.268 44.3046 17.5C43.6299 18.732 43.2926 20.184 43.2926 21.856C43.2926 23.528 43.6299 24.9947 44.3046 26.256C45.0086 27.488 45.9179 28.4267 47.0326 29.072C48.1766 29.7173 49.3792 30.04 50.6406 30.04C51.9312 30.04 53.1339 29.7173 54.2486 29.072C55.3926 28.3973 56.3019 27.4293 56.9766 26.168C57.6806 24.9067 58.0326 23.44 58.0326 21.768ZM78.6129 34.396C76.3249 34.396 74.2569 33.8827 72.4089 32.856C70.5609 31.8 69.1089 30.3333 68.0529 28.456C66.9969 26.5493 66.4689 24.3493 66.4689 21.856C66.4689 19.392 67.0115 17.2067 68.0969 15.3C69.1822 13.3933 70.6635 11.9267 72.5409 10.9C74.4182 9.87333 76.5155 9.36 78.8329 9.36C81.1502 9.36 83.2475 9.87333 85.1249 10.9C87.0022 11.9267 88.4835 13.3933 89.5689 15.3C90.6542 17.2067 91.1969 19.392 91.1969 21.856C91.1969 24.32 90.6395 26.5053 89.5249 28.412C88.4102 30.3187 86.8849 31.8 84.9489 32.856C83.0422 33.8827 80.9302 34.396 78.6129 34.396ZM78.6129 30.04C79.9035 30.04 81.1062 29.732 82.2209 29.116C83.3649 28.5 84.2889 27.576 84.9929 26.344C85.6969 25.112 86.0489 23.616 86.0489 21.856C86.0489 20.096 85.7115 18.6147 85.0369 17.412C84.3622 16.18 83.4675 15.256 82.3529 14.64C81.2382 14.024 80.0355 13.716 78.7449 13.716C77.4542 13.716 76.2515 14.024 75.1369 14.64C74.0515 15.256 73.1862 16.18 72.5409 17.412C71.8955 18.6147 71.5729 20.096 71.5729 21.856C71.5729 24.4667 72.2329 26.4907 73.5529 27.928C74.9022 29.336 76.5889 30.04 78.6129 30.04ZM106.671 34.396C104.383 34.396 102.315 33.8827 100.467 32.856C98.6195 31.8 97.1675 30.3333 96.1115 28.456C95.0555 26.5493 94.5275 24.3493 94.5275 21.856C94.5275 19.392 95.0701 17.2067 96.1555 15.3C97.2408 13.3933 98.7221 11.9267 100.599 10.9C102.477 9.87333 104.574 9.36 106.891 9.36C109.209 9.36 111.306 9.87333 113.183 10.9C115.061 11.9267 116.542 13.3933 117.627 15.3C118.713 17.2067 119.255 19.392 119.255 21.856C119.255 24.32 118.698 26.5053 117.583 28.412C116.469 30.3187 114.943 31.8 113.007 32.856C111.101 33.8827 108.989 34.396 106.671 34.396ZM106.671 30.04C107.962 30.04 109.165 29.732 110.279 29.116C111.423 28.5 112.347 27.576 113.051 26.344C113.755 25.112 114.107 23.616 114.107 21.856C114.107 20.096 113.77 18.6147 113.095 17.412C112.421 16.18 111.526 15.256 110.411 14.64C109.297 14.024 108.094 13.716 106.803 13.716C105.513 13.716 104.31 14.024 103.195 14.64C102.11 15.256 101.245 16.18 100.599 17.412C99.9541 18.6147 99.6315 20.096 99.6315 21.856C99.6315 24.4667 100.291 26.4907 101.611 27.928C102.961 29.336 104.647 30.04 106.671 30.04ZM133.982 9.36C135.859 9.36 137.517 9.74133 138.954 10.504C140.421 11.2373 141.565 12.1613 142.386 13.276V9.756H147.446V34.396C147.446 36.6253 146.977 38.6053 146.038 40.336C145.099 42.096 143.735 43.4747 141.946 44.472C140.186 45.4693 138.074 45.968 135.61 45.968C132.325 45.968 129.597 45.1907 127.426 43.636C125.255 42.1107 124.023 40.028 123.73 37.388H128.702C129.083 38.6493 129.89 39.6613 131.122 40.424C132.383 41.216 133.879 41.612 135.61 41.612C137.634 41.612 139.262 40.996 140.494 39.764C141.755 38.532 142.386 36.7427 142.386 34.396V30.348C141.535 31.492 140.377 32.46 138.91 33.252C137.473 34.0147 135.83 34.396 133.982 34.396C131.87 34.396 129.934 33.868 128.174 32.812C126.443 31.7267 125.065 30.2307 124.038 28.324C123.041 26.388 122.542 24.2027 122.542 21.768C122.542 19.3333 123.041 17.1773 124.038 15.3C125.065 13.4227 126.443 11.9707 128.174 10.944C129.934 9.888 131.87 9.36 133.982 9.36ZM142.386 21.856C142.386 20.184 142.034 18.732 141.33 17.5C140.655 16.268 139.761 15.3293 138.646 14.684C137.531 14.0387 136.329 13.716 135.038 13.716C133.747 13.716 132.545 14.0387 131.43 14.684C130.315 15.3 129.406 16.224 128.702 17.456C128.027 18.6587 127.69 20.096 127.69 21.768C127.69 23.44 128.027 24.9067 128.702 26.168C129.406 27.4293 130.315 28.3973 131.43 29.072C132.574 29.7173 133.777 30.04 135.038 30.04C136.329 30.04 137.531 29.7173 138.646 29.072C139.761 28.4267 140.655 27.488 141.33 26.256C142.034 24.9947 142.386 23.528 142.386 21.856ZM164.55 34.396C162.262 34.396 160.194 33.8827 158.346 32.856C156.498 31.8 155.046 30.3333 153.99 28.456C152.934 26.5493 152.406 24.3493 152.406 21.856C152.406 19.392 152.949 17.2067 154.034 15.3C155.12 13.3933 156.601 11.9267 158.478 10.9C160.356 9.87333 162.453 9.36 164.77 9.36C167.088 9.36 169.185 9.87333 171.062 10.9C172.94 11.9267 174.421 13.3933 175.506 15.3C176.592 17.2067 177.134 19.392 177.134 21.856C177.134 24.32 176.577 26.5053 175.462 28.412C174.348 30.3187 172.822 31.8 170.886 32.856C168.98 33.8827 166.868 34.396 164.55 34.396ZM164.55 30.04C165.841 30.04 167.044 29.732 168.158 29.116C169.302 28.5 170.226 27.576 170.93 26.344C171.634 25.112 171.986 23.616 171.986 21.856C171.986 20.096 171.649 18.6147 170.974 17.412C170.3 16.18 169.405 15.256 168.29 14.64C167.176 14.024 165.973 13.716 164.682 13.716C163.392 13.716 162.189 14.024 161.074 14.64C159.989 15.256 159.124 16.18 158.478 17.412C157.833 18.6147 157.51 20.096 157.51 21.856C157.51 24.4667 158.17 26.4907 159.49 27.928C160.84 29.336 162.526 30.04 164.55 30.04Z" fill="#485766"/>
</svg>
