<svg width="130" height="40" viewBox="0 0 130 40" fill="none" xmlns="http://www.w3.org/2000/svg">
<path d="M117.793 30.1229C116.193 30.1229 114.746 29.764 113.454 29.046C112.162 28.3075 111.146 27.2819 110.408 25.9691C109.67 24.6357 109.3 23.0973 109.3 21.3537C109.3 19.6306 109.68 18.1024 110.439 16.7691C111.198 15.4357 112.234 14.4101 113.546 13.6922C114.859 12.9742 116.326 12.6152 117.946 12.6152C119.567 12.6152 121.034 12.9742 122.346 13.6922C123.659 14.4101 124.695 15.4357 125.454 16.7691C126.213 18.1024 126.593 19.6306 126.593 21.3537C126.593 23.0768 126.203 24.605 125.423 25.9383C124.644 27.2716 123.577 28.3075 122.223 29.046C120.89 29.764 119.413 30.1229 117.793 30.1229ZM117.793 27.0768C118.695 27.0768 119.536 26.8614 120.316 26.4306C121.116 25.9999 121.762 25.3537 122.254 24.4922C122.746 23.6306 122.993 22.5845 122.993 21.3537C122.993 20.1229 122.757 19.087 122.285 18.246C121.813 17.3845 121.187 16.7383 120.408 16.3075C119.629 15.8768 118.787 15.6614 117.885 15.6614C116.982 15.6614 116.141 15.8768 115.362 16.3075C114.603 16.7383 113.998 17.3845 113.546 18.246C113.095 19.087 112.87 20.1229 112.87 21.3537C112.87 23.1793 113.331 24.5947 114.254 25.5998C115.198 26.5845 116.377 27.0768 117.793 27.0768Z" fill="#485766"/>
<path d="M96.416 12.6152C97.7288 12.6152 98.8878 12.8819 99.8929 13.4152C100.919 13.9281 101.719 14.5742 102.293 15.3537V12.8922H105.831V30.1229C105.831 31.6819 105.503 33.0665 104.847 34.2768C104.19 35.5075 103.237 36.4716 101.985 37.1691C100.754 37.8665 99.2776 38.2152 97.5545 38.2152C95.257 38.2152 93.3493 37.6716 91.8314 36.5845C90.3134 35.5178 89.4519 34.0614 89.2468 32.2152H92.7237C92.9904 33.0973 93.5545 33.805 94.416 34.3383C95.2981 34.8922 96.3442 35.1691 97.5545 35.1691C98.9699 35.1691 100.108 34.7383 100.97 33.8768C101.852 33.0152 102.293 31.764 102.293 30.1229V27.2922C101.698 28.0922 100.888 28.7691 99.8622 29.3229C98.857 29.8563 97.7083 30.1229 96.416 30.1229C94.9391 30.1229 93.5852 29.7537 92.3545 29.0152C91.1442 28.2563 90.1801 27.2101 89.4622 25.8768C88.7647 24.5229 88.416 22.9947 88.416 21.2922C88.416 19.5896 88.7647 18.0819 89.4622 16.7691C90.1801 15.4563 91.1442 14.4409 92.3545 13.7229C93.5852 12.9845 94.9391 12.6152 96.416 12.6152ZM102.293 21.3537C102.293 20.1845 102.047 19.1691 101.554 18.3075C101.083 17.446 100.457 16.7896 99.6775 16.3383C98.8981 15.887 98.057 15.6614 97.1545 15.6614C96.2519 15.6614 95.4109 15.887 94.6314 16.3383C93.8519 16.7691 93.216 17.4152 92.7237 18.2768C92.2519 19.1178 92.016 20.1229 92.016 21.2922C92.016 22.4614 92.2519 23.487 92.7237 24.3691C93.216 25.2511 93.8519 25.9281 94.6314 26.3999C95.4314 26.8511 96.2724 27.0768 97.1545 27.0768C98.057 27.0768 98.8981 26.8511 99.6775 26.3999C100.457 25.9486 101.083 25.2922 101.554 24.4306C102.047 23.5486 102.293 22.5229 102.293 21.3537Z" fill="#485766"/>
<path d="M77.318 30.1229C75.718 30.1229 74.2718 29.764 72.9795 29.046C71.6872 28.3075 70.6718 27.2819 69.9334 25.9691C69.1949 24.6357 68.8257 23.0973 68.8257 21.3537C68.8257 19.6306 69.2052 18.1024 69.9641 16.7691C70.7231 15.4357 71.759 14.4101 73.0718 13.6922C74.3847 12.9742 75.8513 12.6152 77.4718 12.6152C79.0924 12.6152 80.559 12.9742 81.8718 13.6922C83.1847 14.4101 84.2206 15.4357 84.9795 16.7691C85.7385 18.1024 86.118 19.6306 86.118 21.3537C86.118 23.0768 85.7283 24.605 84.9488 25.9383C84.1693 27.2716 83.1026 28.3075 81.7488 29.046C80.4154 29.764 78.9385 30.1229 77.318 30.1229ZM77.318 27.0768C78.2206 27.0768 79.0616 26.8614 79.8411 26.4306C80.6411 25.9999 81.2872 25.3537 81.7795 24.4922C82.2718 23.6306 82.518 22.5845 82.518 21.3537C82.518 20.1229 82.2821 19.087 81.8103 18.246C81.3385 17.3845 80.7129 16.7383 79.9334 16.3075C79.1539 15.8768 78.3129 15.6614 77.4103 15.6614C76.5077 15.6614 75.6667 15.8768 74.8872 16.3075C74.1283 16.7383 73.5231 17.3845 73.0718 18.246C72.6206 19.087 72.3949 20.1229 72.3949 21.3537C72.3949 23.1793 72.8565 24.5947 73.7795 25.5998C74.7231 26.5845 75.9026 27.0768 77.318 27.0768Z" fill="#485766"/>
<path d="M57.6964 30.1229C56.0964 30.1229 54.6503 29.764 53.3579 29.046C52.0656 28.3075 51.0503 27.2819 50.3118 25.9691C49.5733 24.6357 49.2041 23.0973 49.2041 21.3537C49.2041 19.6306 49.5836 18.1024 50.3426 16.7691C51.1015 15.4357 52.1374 14.4101 53.4503 13.6922C54.7631 12.9742 56.2297 12.6152 57.8503 12.6152C59.4708 12.6152 60.9374 12.9742 62.2503 13.6922C63.5631 14.4101 64.599 15.4357 65.3579 16.7691C66.1169 18.1024 66.4964 19.6306 66.4964 21.3537C66.4964 23.0768 66.1067 24.605 65.3272 25.9383C64.5477 27.2716 63.481 28.3075 62.1272 29.046C60.7938 29.764 59.3169 30.1229 57.6964 30.1229ZM57.6964 27.0768C58.599 27.0768 59.44 26.8614 60.2195 26.4306C61.0195 25.9999 61.6656 25.3537 62.1579 24.4922C62.6503 23.6306 62.8964 22.5845 62.8964 21.3537C62.8964 20.1229 62.6605 19.087 62.1887 18.246C61.7169 17.3845 61.0913 16.7383 60.3118 16.3075C59.5323 15.8768 58.6913 15.6614 57.7887 15.6614C56.8862 15.6614 56.0451 15.8768 55.2656 16.3075C54.5067 16.7383 53.9015 17.3845 53.4503 18.246C52.999 19.087 52.7733 20.1229 52.7733 21.3537C52.7733 23.1793 53.2349 24.5947 54.1579 25.5998C55.1015 26.5845 56.281 27.0768 57.6964 27.0768Z" fill="#485766"/>
<path d="M32.997 15.4146C33.5918 14.5941 34.4021 13.9275 35.4277 13.4146C36.4739 12.8813 37.6328 12.6146 38.9046 12.6146C40.4021 12.6146 41.7559 12.9736 42.9662 13.6916C44.1764 14.4095 45.1303 15.4351 45.8277 16.7685C46.5252 18.0813 46.8739 19.589 46.8739 21.2916C46.8739 22.9941 46.5252 24.5223 45.8277 25.8762C45.1303 27.2095 44.1662 28.2557 42.9354 29.0146C41.7252 29.7531 40.3816 30.1223 38.9046 30.1223C37.5918 30.1223 36.4226 29.8659 35.397 29.3531C34.3918 28.8403 33.5918 28.1839 32.997 27.3839V29.8454H29.4893V7.07617H32.997V15.4146ZM43.3046 21.2916C43.3046 20.1223 43.0585 19.1172 42.5662 18.2762C42.0944 17.4146 41.4585 16.7685 40.6585 16.3377C39.879 15.8864 39.038 15.6608 38.1354 15.6608C37.2534 15.6608 36.4123 15.8864 35.6123 16.3377C34.8328 16.789 34.1969 17.4454 33.7046 18.3069C33.2328 19.1685 32.997 20.1839 32.997 21.3531C32.997 22.5223 33.2328 23.548 33.7046 24.43C34.1969 25.2916 34.8328 25.948 35.6123 26.3993C36.4123 26.8505 37.2534 27.0762 38.1354 27.0762C39.038 27.0762 39.879 26.8505 40.6585 26.3993C41.4585 25.9275 42.0944 25.2505 42.5662 24.3685C43.0585 23.4864 43.3046 22.4608 43.3046 21.2916Z" fill="#485766"/>
<path d="M23.1607 10.6466C22.5248 10.6466 21.9915 10.4312 21.5607 10.0005C21.1299 9.56968 20.9146 9.03635 20.9146 8.40045C20.9146 7.76455 21.1299 7.23122 21.5607 6.80045C21.9915 6.36968 22.5248 6.1543 23.1607 6.1543C23.7761 6.1543 24.2992 6.36968 24.7299 6.80045C25.1607 7.23122 25.3761 7.76455 25.3761 8.40045C25.3761 9.03635 25.1607 9.56968 24.7299 10.0005C24.2992 10.4312 23.7761 10.6466 23.1607 10.6466ZM24.8838 12.8928V29.8466H21.3761V12.8928H24.8838Z" fill="#485766"/>
<path d="M18.031 14.8302C18.031 15.9173 17.7746 16.943 17.2618 17.9071C16.7489 18.8712 15.9284 19.6609 14.8002 20.2763C13.672 20.8712 12.2259 21.1686 10.4618 21.1686H6.58484V29.8456H3.07715V8.46094H10.4618C12.1028 8.46094 13.4874 8.74812 14.6156 9.32248C15.7643 9.87632 16.6156 10.6353 17.1695 11.5994C17.7438 12.5635 18.031 13.6404 18.031 14.8302ZM10.4618 18.3071C11.7951 18.3071 12.79 18.0097 13.4464 17.4148C14.1028 16.7994 14.431 15.9379 14.431 14.8302C14.431 12.4917 13.1079 11.3225 10.4618 11.3225H6.58484V18.3071H10.4618Z" fill="#485766"/>
</svg>
