<svg width="54" height="54" viewBox="0 0 54 54" fill="none" xmlns="http://www.w3.org/2000/svg">
<path d="M27.002 6.75C40.0498 6.75 50.6273 14.995 50.6273 25.1656C50.6273 35.3362 40.0498 43.5811 27.002 43.5811C25.6786 43.5811 24.3812 43.4947 23.117 43.3318L13.1988 49.8193C12.0706 50.4164 11.6723 50.35 12.1368 48.89L14.1429 40.6154C7.66288 37.3318 3.37721 31.6393 3.37721 25.1656C3.37721 14.995 13.9544 6.75 27.002 6.75ZM40.293 24.883L43.6012 21.6814C44.0226 21.2734 44.0336 20.6014 43.6259 20.1798C43.2182 19.7589 42.5462 19.7475 42.1243 20.1552L37.7858 24.3538V20.8851C37.7858 20.2989 37.3106 19.8234 36.7241 19.8234C36.1379 19.8234 35.6623 20.2989 35.6623 20.8851V26.6384C35.6222 26.8027 35.6231 26.9728 35.6623 27.1375V30.375C35.6623 30.9613 36.1379 31.4368 36.7241 31.4368C37.3106 31.4368 37.7858 30.9613 37.7858 30.375V27.3089L38.7479 26.3781L41.9605 30.9521C42.1673 31.2464 42.4964 31.4039 42.8303 31.4039C43.0414 31.4039 43.2542 31.3409 43.4399 31.2106C43.9198 30.8738 44.0354 30.2114 43.6984 29.7315L40.293 24.883ZM33.6382 29.2138H30.3534V20.9183C30.3534 20.3321 29.878 19.8566 29.2914 19.8566C28.7053 19.8566 28.2301 20.3321 28.2301 20.9183V30.2753C28.2301 30.8619 28.7053 31.3371 29.2914 31.3371H33.6382C34.2248 31.3371 34.7 30.8619 34.7 30.2753C34.7 29.6892 34.2248 29.2138 33.6382 29.2138ZM20.4597 26.7581L22.0257 22.916L23.4596 26.7581H20.4597ZM26.1358 27.8554C26.1362 27.8433 26.1394 27.8323 26.1394 27.8201C26.1394 27.5411 26.0296 27.2896 25.8539 27.1001L23.5017 20.7985C23.2803 20.1688 22.7261 19.7508 22.0896 19.7331C21.4638 19.7162 20.8815 20.1076 20.6202 20.7376L16.8828 29.9079C16.6617 30.4508 16.9224 31.0707 17.4655 31.2921C18.0085 31.5135 18.6282 31.2525 18.8494 30.7093L19.5942 28.8819H24.2521L24.9233 30.6801C25.0828 31.1071 25.4876 31.3708 25.9184 31.3706C26.0417 31.3706 26.1671 31.349 26.2895 31.3033C26.8389 31.0986 27.1179 30.4868 26.9127 29.9371L26.1358 27.8554ZM18.6625 20.9294C18.6625 20.3431 18.187 19.8676 17.6008 19.8676H10.301C9.7145 19.8676 9.239 20.3431 9.239 20.9294C9.239 21.5156 9.7145 21.9911 10.301 21.9911H12.911V30.3973C12.911 30.9836 13.3865 31.4588 13.9728 31.4588C14.5593 31.4588 15.0348 30.9836 15.0348 30.3973V21.9911H17.6008C18.187 21.9911 18.6625 21.5156 18.6625 20.9294Z" fill="black"/>
</svg>
